<?xml version="1.0" standalone="no"?>
<!DOCTYPE svg PUBLIC "-//W3C//DTD SVG 20010904//EN"
 "http://www.w3.org/TR/2001/REC-SVG-20010904/DTD/svg10.dtd">
<svg version="1.0" xmlns="http://www.w3.org/2000/svg"
 width="512.000000pt" height="512.000000pt" viewBox="0 0 512.000000 512.000000"
 preserveAspectRatio="xMidYMid meet">

<g transform="translate(0.000000,512.000000) scale(0.100000,-0.100000)"
fill="#000000" stroke="none">
<path d="M2520 2308 c-17 -9 -38 -44 -70 -118 l-47 -105 -96 -5 c-121 -6 -143
-23 -138 -105 0 -11 31 -47 67 -81 l66 -62 -21 -102 c-27 -134 -27 -146 9
-182 42 -41 67 -35 179 48 l91 66 93 -68 c107 -79 143 -87 183 -40 29 33 29
46 3 176 l-21 102 57 51 c61 54 85 94 77 132 -8 47 -37 60 -140 65 l-96 5 -43
100 c-24 55 -49 106 -56 112 -19 19 -69 25 -97 11z"/>
</g>
</svg>
